# xmcd CD database file
# Copyright (C) 1996 Ti Kan
#
# Track frame offsets:
#	150
#	17685
#	30042
#	46597
#	61760
#	75162
#	89302
#	108317
#	128205
#	141737
#	160422
#	175412
#	194952
#
# Disc length: 2761 seconds
#
# Revision: 1
# Processed by: cddbd v1.4b41PL1 Copyright (c) Steve Scherf et al.
# Submitted via: EasyCD 2.21 - (C) 1996 Greg Leichner
#
DISCID=a30ac70d
DTITLE=Flying Burrito Brothers - Relix Records Best of Flying Burrito Brothers
DYEAR=1900
DGENRE=
TTITLE0=Big Bayou
TTITLE1=Wheels
TTITLE2=Christine's Tune
TTITLE3=White Line Fever
TTITLE4=Mr. Spaceman
TTITLE5=Faded Love
TTITLE6=Hot Burrito #2
TTITLE7=Citizen Kane
TTITLE8=Truck Drivin'  Man
TTITLE9=Sin City
TTITLE10=Rock Top
TTITLE11=Do Right Woman
TTITLE12=Close Up The Honky Tonks
EXTD=
EXTT0=
EXTT1=
EXTT2=
EXTT3=
EXTT4=
EXTT5=
EXTT6=
EXTT7=
EXTT8=
EXTT9=
EXTT10=
EXTT11=
EXTT12=
PLAYORDER=
